Patient4_TMGait_0pt3_02_right_27_GRF.mot
version=1
nRows=45
nColumns=19
inDegrees=no
endheader
time	F1x	F1y	F1z	M1x	M1y	M1z	F2x	F2y	F2z	M2x	M2y	M2z	EC1x	EC1y	EC1z	EC2x	EC2y	EC2z
51.95	-7.5634	718.7083	44.9344	-246.7172	-49.6739	733.1403	-1.7168	43.414	-4.3052	17.0156	3.8223	37.3004	-0.0592	0.0182	-0.0073	-0.0462	0.0165	0.9585
51.9694	-7.9508	733.8814	46.5602	-251.7528	-50.6288	746.0848	-2.1918	37.4144	-4.0617	14.6316	3.961	32.2176	-0.0592	0.0182	-0.0073	-0.0462	0.0165	0.9585
51.9889	-8.2958	752.7134	48.6621	-258.0194	-52.0057	762.1577	-2.5603	30.4264	-3.6054	11.8817	3.8543	26.2976	-0.0592	0.0182	-0.0073	-0.0462	0.0165	0.9585
52.0083	-8.5042	774.2435	51.189	-265.1893	-53.7587	780.4423	-2.6762	23.1095	-2.9633	9.0242	3.4578	20.097	-0.0592	0.0182	-0.0073	-0.0462	0.0165	0.9585
52.0277	-8.4737	797.0164	54.0094	-272.7622	-55.7402	799.5392	-2.4545	16.2331	-2.2182	6.3531	2.8076	14.2671	-0.0592	0.0182	-0.0073	-0.0462	0.0165	0.9585
52.0471	-8.0916	819.2291	56.9209	-280.1207	-57.718	817.7098	-1.9911	10.4584	-1.492	4.1184	2.0505	9.3663	-0.0592	0.0182	-0.0073	-0.0462	0.0165	0.9585
52.0666	-7.2544	838.9147	59.6887	-286.5956	-59.4238	833.0667	-1.4563	6.0885	-0.87906	2.4321	1.3416	5.6581	-0.0592	0.0182	-0.0073	-0.0462	0.0165	0.9585
52.086	-5.8807	854.1584	62.0865	-291.5387	-60.6013	843.7873	-0.95823	3.0771	-0.41048	1.2722	0.75478	3.1005	-0.0592	0.0182	-0.0073	-0.0462	0.0165	0.9585
52.1054	-3.9352	863.2894	63.9184	-294.3888	-61.044	848.3062	-0.55198	1.1828	-0.079794	0.54298	0.31103	1.4806	-0.0592	0.0182	-0.0073	-0.0462	0.0165	0.9585
52.1249	-1.4486	865.1137	65.0322	-294.7508	-60.6162	845.5433	-0.25393	0.075915	0.1407	0.11493	-0.0027002	0.51298	-0.0592	0.0182	-0.0073	-0.0462	0.0165	0.9585
52.1443	1.5034	859.1721	65.3365	-292.484	-59.2581	835.1334	-0.055148	-0.5896	0.28512	-0.14763	-0.21653	-0.10851	-0.0592	0.0182	-0.0073	-0.0462	0.0165	0.9585
52.1637	4.836	845.9363	64.8223	-287.7665	-56.9949	817.5991	0.063128	-1.1298	0.38761	-0.36929	-0.36437	-0.67436	-0.0592	0.0182	-0.0073	-0.0462	0.0165	0.9585
52.1831	8.4551	826.8317	63.5747	-281.0978	-53.9503	794.3645	0.1224	-1.803	0.47532	-0.65293	-0.47712	-1.4247	-0.0592	0.0182	-0.0073	-0.0462	0.0165	0.9585
52.2026	12.2856	804.0937	61.7581	-273.2518	-50.3165	767.5895	0.14815	-2.7898	0.5615	-1.0712	-0.57519	-2.5338	-0.0592	0.0182	-0.0073	-0.0462	0.0165	0.9585
52.222	16.3117	780.454	59.5851	-265.1705	-46.3054	739.8594	0.16661	-4.1706	0.64484	-1.6549	-0.66998	-4.0777	-0.0592	0.0182	-0.0073	-0.0462	0.0165	0.9585
52.2414	20.5469	758.6495	57.2826	-257.7903	-42.1288	713.7321	0.20106	-5.8858	0.70831	-2.3787	-0.75593	-5.9863	-0.0592	0.0182	-0.0073	-0.0462	0.0165	0.9585
52.2609	24.9791	740.8693	55.0696	-251.8497	-37.9989	691.259	0.27135	-7.6842	0.71733	-3.1389	-0.80267	-7.9899	-0.0592	0.0182	-0.0073	-0.0462	0.0165	0.9585
52.2803	29.5556	728.3316	53.1377	-247.7446	-34.1138	673.6247	0.39422	-9.0623	0.61876	-3.7273	-0.75678	-9.5517	-0.0592	0.0182	-0.0073	-0.0462	0.0165	0.9585
52.2997	34.173	721.0794	51.6262	-245.4557	-30.6391	660.9595	0.58347	-9.2012	0.34112	-3.8046	-0.5423	-9.7974	-0.0592	0.0182	-0.0073	-0.0462	0.0165	0.9585
52.3191	38.6819	717.9895	50.6128	-244.5524	-27.7004	652.3499	0.83988	-6.9189	-0.19969	-2.8824	-0.063714	-7.4607	-0.0592	0.0182	-0.0073	-0.0462	0.0165	0.9585
52.3386	42.8839	716.9852	50.112	-244.2717	-25.3853	646.0439	1.1392	-0.67039	-1.0902	-0.32393	0.7862	-0.87444	-0.0592	0.0182	-0.0073	-0.0462	0.0165	0.9585
52.358	46.5326	715.3657	50.083	-243.6388	-23.7492	639.7558	1.4276	11.3598	-2.3952	4.6187	2.1069	11.9307	-0.0592	0.0182	-0.0073	-0.0462	0.0165	0.9585
52.3774	49.3624	710.2523	50.4209	-241.6321	-22.7948	631.0533	1.5932	31.0373	-4.1303	12.7151	3.9732	32.9863	-0.0592	0.0182	-0.0073	-0.0462	0.0165	0.9585
52.3969	51.1284	699.0485	50.9334	-237.3555	-22.4439	617.7547	1.3425	59.9278	-6.2292	24.6149	6.445	64.0119	-0.0592	0.0182	-0.0073	-0.0462	0.0165	0.9585
52.4163	51.6285	679.8578	51.3355	-230.1889	-22.5252	598.2797	0.051264	98.7188	-8.5049	40.6083	9.5793	105.8005	-0.0592	0.0182	-0.0073	-0.0462	0.0165	0.9585
52.4357	50.7361	651.7621	51.3048	-219.8849	-22.8073	571.8619	-3.1081	146.5968	-10.707	60.3635	13.4315	157.5543	-0.0592	0.0182	-0.0073	-0.0462	0.0165	0.9585
52.4551	48.4549	614.9354	50.55	-206.5932	-23.0392	538.6138	-8.3116	200.9907	-12.712	82.8024	17.9204	216.557	-0.0592	0.0182	-0.0073	-0.0462	0.0165	0.9585
52.4746	44.9761	570.6717	48.8886	-190.8496	-22.9974	499.538	-14.9993	257.9434	-14.8857	106.2325	23.1865	278.5121	-0.0592	0.0182	-0.0073	-0.0462	0.0165	0.9585
52.494	40.6793	521.192	46.3311	-173.4875	-22.5497	456.3656	-22.3258	314.061	-17.5298	129.1907	29.1875	339.6616	-0.0592	0.0182	-0.0073	-0.0462	0.0165	0.9585
52.5134	36.0073	468.9913	43.0614	-155.4026	-21.6806	411.0421	-29.4078	367.364	-20.616	150.8327	35.52	397.7345	-0.0592	0.0182	-0.0073	-0.0462	0.0165	0.9585
52.5329	31.3031	416.2409	39.3013	-137.3485	-20.4352	365.2885	-35.4543	416.4908	-23.9117	170.6052	41.6074	451.104	-0.0592	0.0182	-0.0073	-0.0462	0.0165	0.9585
52.5523	26.7761	364.7158	35.2505	-119.9132	-18.8865	320.559	-39.8656	460.3457	-27.1175	188.0873	46.8853	498.4519	-0.0592	0.0182	-0.0073	-0.0462	0.0165	0.9585
52.5717	22.5452	315.9455	31.1105	-103.5769	-17.1415	278.1511	-42.336	498.1196	-29.9766	202.9889	50.9608	538.8378	-0.0592	0.0182	-0.0073	-0.0462	0.0165	0.9585
52.5911	18.6714	271.2634	27.0898	-88.7378	-15.3393	239.2322	-42.9055	529.4161	-32.3344	215.1957	53.697	571.8405	-0.0592	0.0182	-0.0073	-0.0462	0.0165	0.9585
52.6106	15.1979	231.7127	23.3782	-75.6915	-13.6211	204.7335	-41.9088	554.4816	-34.1172	224.8555	55.1678	597.7776	-0.0592	0.0182	-0.0073	-0.0462	0.0165	0.9585
52.63	12.1662	197.8805	20.107	-64.5854	-12.0911	175.1788	-39.825	574.2233	-35.3248	232.3744	55.5832	617.6955	-0.0592	0.0182	-0.0073	-0.0462	0.0165	0.9585
52.6494	9.5916	169.7335	17.3327	-55.3709	-10.7988	150.5405	-37.1363	589.9716	-36.0393	238.3131	55.2349	633.0864	-0.0592	0.0182	-0.0073	-0.0462	0.0165	0.9585
52.6689	7.4309	146.535	15.0422	-47.7817	-9.7497	130.1752	-34.249	603.1555	-36.4209	243.254	54.4609	645.5206	-0.0592	0.0182	-0.0073	-0.0462	0.0165	0.9585
52.6883	5.5813	127.0392	13.1752	-41.3972	-8.9295	112.9954	-31.4594	615.09	-36.6718	247.7246	53.5947	656.4111	-0.0592	0.0182	-0.0073	-0.0462	0.0165	0.9585
52.7077	3.9063	109.8989	11.6515	-35.7725	-8.3179	97.8315	-28.9355	626.9067	-36.9676	252.1792	52.8866	666.9357	-0.0592	0.0182	-0.0073	-0.0462	0.0165	0.9585
52.7271	2.2899	94.0303	10.3817	-30.5556	-7.8794	83.7499	-26.7143	639.456	-37.4089	256.9668	52.4509	677.9411	-0.0592	0.0182	-0.0073	-0.0462	0.0165	0.9585
52.7466	0.68899	78.7976	9.2671	-25.5448	-7.5462	70.1994	-24.7356	653.1827	-38.0085	262.2827	52.2704	689.8316	-0.0592	0.0182	-0.0073	-0.0462	0.0165	0.9585
52.766	-0.86096	64.0272	8.2076	-20.6923	-7.2232	57.0381	-22.8842	668.0847	-38.7004	268.1505	52.2297	702.5472	-0.0592	0.0182	-0.0073	-0.0462	0.0165	0.9585
52.7854	-2.2534	49.9103	7.1171	-16.0689	-6.8055	44.4533	-21.0194	683.7869	-39.365	274.4471	52.1515	715.6538	-0.0592	0.0182	-0.0073	-0.0462	0.0165	0.9585
52.8049	-3.321	36.8479	5.9489	-11.8118	-6.2007	32.8121	-19.0144	699.693	-39.8766	280.9512	51.8556	728.5186	-0.0592	0.0182	-0.0073	-0.0462	0.0165	0.9585
